<mxfile host="app.diagrams.net" modified="2023-07-24T04:37:39.091Z" agent="Mozilla/5.0 (Windows NT 10.0; Win64; x64; rv:109.0) Gecko/20100101 Firefox/115.0" etag="tcKWZG3RpZ5wwV0VlRGj" version="21.6.5" type="github">
  <diagram name="Page-1" id="b520641d-4fe3-3701-9064-5fc419738815">
    <mxGraphModel dx="1434" dy="723" grid="1" gridSize="10" guides="1" tooltips="1" connect="1" arrows="1" fold="1" page="1" pageScale="1" pageWidth="1100" pageHeight="850" background="none" math="0" shadow="0">
      <root>
        <mxCell id="0" />
        <mxCell id="1" parent="0" />
        <mxCell id="fTDkWAGAyBZ8vCq5md1t-8" style="edgeStyle=orthogonalEdgeStyle;rounded=0;orthogonalLoop=1;jettySize=auto;html=1;exitX=0;exitY=0.5;exitDx=0;exitDy=0;entryX=0.174;entryY=1.956;entryDx=0;entryDy=0;entryPerimeter=0;" edge="1" parent="1" source="fTDkWAGAyBZ8vCq5md1t-1" target="fTDkWAGAyBZ8vCq5md1t-7">
          <mxGeometry relative="1" as="geometry" />
        </mxCell>
        <mxCell id="fTDkWAGAyBZ8vCq5md1t-1" value="Main Board" style="rounded=1;arcSize=10;whiteSpace=wrap;html=1;align=center;" vertex="1" parent="1">
          <mxGeometry x="210" y="190" width="100" height="40" as="geometry" />
        </mxCell>
        <mxCell id="fTDkWAGAyBZ8vCq5md1t-2" value="" style="verticalLabelPosition=bottom;html=1;verticalAlign=top;align=center;shape=mxgraph.floorplan.doorOverhead;rotation=90;" vertex="1" parent="1">
          <mxGeometry x="466.25" y="421.25" width="487.5" height="30" as="geometry" />
        </mxCell>
        <mxCell id="fTDkWAGAyBZ8vCq5md1t-4" value="rr" style="verticalLabelPosition=bottom;html=1;verticalAlign=top;align=center;shape=mxgraph.floorplan.wallU;fillColor=strokeColor;direction=north;" vertex="1" parent="1">
          <mxGeometry x="110" y="180" width="620" height="510" as="geometry" />
        </mxCell>
        <mxCell id="fTDkWAGAyBZ8vCq5md1t-5" value="" style="verticalLabelPosition=bottom;html=1;verticalAlign=top;align=center;shape=mxgraph.floorplan.doorRight;aspect=fixed;direction=west;" vertex="1" parent="1">
          <mxGeometry x="130" y="105" width="80" height="85" as="geometry" />
        </mxCell>
        <mxCell id="fTDkWAGAyBZ8vCq5md1t-6" value="" style="verticalLabelPosition=bottom;shadow=0;dashed=0;align=center;html=1;verticalAlign=top;shape=mxgraph.electrical.transmission.4_line_bus;" vertex="1" parent="1">
          <mxGeometry x="310" y="200" width="360" height="10" as="geometry" />
        </mxCell>
        <mxCell id="fTDkWAGAyBZ8vCq5md1t-7" value="" style="html=1;shape=mxgraph.electrical.electro-mechanical.pushbutton;aspect=fixed;elSwitchState=off;direction=north;" vertex="1" parent="1">
          <mxGeometry x="210" y="191.25" width="7.67" height="28.75" as="geometry" />
        </mxCell>
        <mxCell id="fTDkWAGAyBZ8vCq5md1t-9" value="" style="pointerEvents=1;verticalLabelPosition=bottom;shadow=0;dashed=0;align=center;html=1;verticalAlign=top;shape=mxgraph.electrical.electro-mechanical.relay;" vertex="1" parent="1">
          <mxGeometry x="230" y="191.25" width="30" height="10" as="geometry" />
        </mxCell>
        <mxCell id="fTDkWAGAyBZ8vCq5md1t-10" value="Hall Effect Sensor" style="pointerEvents=1;verticalLabelPosition=bottom;shadow=0;dashed=0;align=center;html=1;verticalAlign=top;shape=mxgraph.electrical.miscellaneous.generic_component" vertex="1" parent="1">
          <mxGeometry x="660" y="190" width="40" height="30" as="geometry" />
        </mxCell>
        <mxCell id="fTDkWAGAyBZ8vCq5md1t-11" value="" style="verticalLabelPosition=bottom;shadow=0;dashed=0;align=center;html=1;verticalAlign=top;shape=mxgraph.electrical.transmission.2_line_bus;direction=south;" vertex="1" parent="1">
          <mxGeometry x="250" y="230" width="10" height="220" as="geometry" />
        </mxCell>
        <mxCell id="fTDkWAGAyBZ8vCq5md1t-12" value="" style="verticalLabelPosition=bottom;shadow=0;dashed=0;align=center;html=1;verticalAlign=top;shape=mxgraph.electrical.transmission.twoLineBusElbow;notch=10;direction=south;" vertex="1" parent="1">
          <mxGeometry x="250" y="450" width="160" height="20" as="geometry" />
        </mxCell>
        <mxCell id="fTDkWAGAyBZ8vCq5md1t-13" value="Door Opener" style="shape=cube;whiteSpace=wrap;html=1;boundedLbl=1;backgroundOutline=1;darkOpacity=0.05;darkOpacity2=0.1;" vertex="1" parent="1">
          <mxGeometry x="410" y="425" width="120" height="80" as="geometry" />
        </mxCell>
        <mxCell id="fTDkWAGAyBZ8vCq5md1t-14" value="Wireless Router (2.4 GHz)" style="fontColor=#0066CC;verticalAlign=top;verticalLabelPosition=bottom;labelPosition=center;align=center;html=1;outlineConnect=0;fillColor=#CCCCCC;strokeColor=#6881B3;gradientColor=none;gradientDirection=north;strokeWidth=2;shape=mxgraph.networks.wireless_hub;" vertex="1" parent="1">
          <mxGeometry x="225" y="10" width="70" height="50" as="geometry" />
        </mxCell>
        <mxCell id="fTDkWAGAyBZ8vCq5md1t-15" value="" style="html=1;outlineConnect=0;fillColor=#CCCCCC;strokeColor=#6881B3;gradientColor=none;gradientDirection=north;strokeWidth=2;shape=mxgraph.networks.comm_link_edge;html=1;rounded=0;" edge="1" parent="1">
          <mxGeometry width="100" height="100" relative="1" as="geometry">
            <mxPoint x="270" y="201.25" as="sourcePoint" />
            <mxPoint x="270" y="121" as="targetPoint" />
          </mxGeometry>
        </mxCell>
      </root>
    </mxGraphModel>
  </diagram>
</mxfile>
